<mxfile host="65bd71144e">
    <diagram id="ZRgNgkGBJunc0q0rqTIc" name="Page-1">
        <mxGraphModel dx="1028" dy="587" grid="1" gridSize="10" guides="1" tooltips="1" connect="1" arrows="1" fold="1" page="1" pageScale="1" pageWidth="1654" pageHeight="2336" math="0" shadow="0">
            <root>
                <mxCell id="0"/>
                <mxCell id="1" parent="0"/>
                <mxCell id="2" value="" style="rounded=0;whiteSpace=wrap;html=1;" parent="1" vertex="1">
                    <mxGeometry x="270" y="100" width="260" height="480" as="geometry"/>
                </mxCell>
                <mxCell id="3" value="ECStack" style="text;html=1;align=center;verticalAlign=middle;resizable=0;points=[];autosize=1;strokeColor=none;" parent="1" vertex="1">
                    <mxGeometry x="370" y="60" width="60" height="20" as="geometry"/>
                </mxCell>
                <mxCell id="4" value="" style="rounded=0;whiteSpace=wrap;html=1;" parent="1" vertex="1">
                    <mxGeometry x="310" y="440" width="190" height="120" as="geometry"/>
                </mxCell>
                <mxCell id="5" value="GEC(global exection context)" style="text;html=1;align=center;verticalAlign=middle;resizable=0;points=[];autosize=1;strokeColor=none;" parent="1" vertex="1">
                    <mxGeometry x="310" y="410" width="170" height="20" as="geometry"/>
                </mxCell>
                <mxCell id="7" value="" style="shape=image;verticalLabelPosition=bottom;labelBackgroundColor=#ffffff;verticalAlign=top;aspect=fixed;imageAspect=0;image=data:image/png,iVBORw0KGgoAAAANSUhEUgAAAUYAAAE+CAYAAADxprlcAAAgAElEQVR4Aey993McSZbnuf/GzO7szu709jRJaCCRSCRkQiW0ILSWBECwSBDUZFFrFrUosoqiqsgSLLKqWGSprmazRIvabqu9npk26+212euzM9v54ex+uJ/uzu7MztbPvp58kR6eEZkRKYBM4P0Q5hEez2W4f+K5P4/wf/WzrCIR6/BXBUVWXklMuVjx8P3Ydc11xHXEbWDl28C/cvIQGIwr/6CcPCeW4efEbSA5bcARGLmyk1PZXI9cj6lqA2fOnBFujlTlY7XEy2B0MJWwWh42l2P1ghlQ/ElBrqMDstwWorcFBiODkTvJKmgDDMbooHP7ImAwroJO4fahs3xyO1E61CeDMbnPlMHIYGSNcRW0AQYjg5E78iroyOmgZa2mPDAYGYwMRgYjtwGtDTAYGYzL1ikKvVXi7oMn4u67T01HV9940vJQ29gl4z584lLS4lQ1oc6eMVPeqSwFxRVJS29sZqtMY3xmMa44c4v84uqtd8Ubb38kKmta44pDLfNaPLcCY1HFBvHo9X8r/vTzn4n//v0G8S+/3iAqG9bJZT1rsY7clJnnGLU3r1p53rJa8d5HPzeOR09fiMfPvhUAgSqXyHlr15CM8/U7D5MWp5qfwfHNRv5RFuQfh8cXiJne9PwOcenG2+LBo68E8rdj33GRne+LCLf71dMyzu27j0TcU/Nidz48sWDk68CxC3HFYRd3PP6DY/MCzyWesCsVxgqM//vvssT/+HO++D9+zBZ/ePZT8etHPxH5ZVkMxih9np4fg9FBJVFlnTp/S3bgTAIj5Z3cdx+H4BgNjNl5PnHh2tsGrAimcN/+4JnwldeboJEoGAtLqiR8P/j4uWjpHDTFTfleThcvwNvvfLLi+XBTZh2MJVUbJBT/t99mRaxthKybuNeiLIORwRjRSQh0H376QrRtHBbrsj2ioqZZvPXBMwnLW/cem8KQfLwaYzp1vPU5xbKMmQ7GjT0/lWD8/Sf/kcHooo9TW3QMxvLiJlHtbRcbsr2mTkER5eaVy/v5eVUR99dnF4u2imEx3bhTjNcvirrSjREyFA/CI52cXL8h4y2sFRMN28VEw6LwFdUZ/hQmHrekvE5gyDQ5tySa2vtFdX27cQACVnG60RjXZ3tETUOHmNi0KDCcLa0MWsZJQ+nrt9+X90vK6sTo9Csyb8ijVT7IL6+oXPQMTotNC7vFwOicwDftdM/OjaUxYr4PQIR2qA8n84vLBU0noM4oDQLj4u4jEqIoN4bhnb3jAnkkOXJzC/1GXav1jnOAieSs3Kz8EhFs7RXTm3eK3qEZgekOKznVD/OpbV3DMoxdnjCfjLpHuVD2Bx9+EZHHWM9DTXO5z3WNsa7lZxKM//DZTxmMqQTjrcnH4oc9fxEzTbstG+LJ/pvy/nzLAeN+YX6VONZ/Q/xmz3+T9xCejnc2fSlwX29A8y37pUxv9bQE6Ofbfm+EQdiHm7+JCKPHEet678EzsvGrQ0T1HEM6qzicghEGFQw51ThxjuFpkddcZgIjtDCr4eueV09L2Kj5AUAu33wQET/SOHTyimXeKXwsMNJ8H/JPYVT32NnrMt1jp68Z9wmM8NPLDZAC2moc/cObLPOO/LdtHDHJquEQD56NXq9HTl0RGP6rsjjPKywTh05cipBHeJRDnS/V47S6Pn/1bkQaepp217mVQdH16IuoR+vt9+KOXwcjDC+YX/wvP/8ZgzGVYGyrGJGA+njLryIeXlaOT3y/679KAEJzpMYx37xPhvl88UdxsOeiGK7bIgDOXyz9k/Q/P/yWIWuEeQnGw72XjTjvTj8VW9uPyDhmGndFhEFYaBKlVUHhrw6KXAstheKfmN0uO8r7H38tuvunpFZHQIKRYWnvcbF5237LNJyAERoMaVXQAqExzm3dK+fQ0NlgFcbQlPJDYKSOiE6OMAAc+eGa5OFevP6WvPfGWx+JpT1HpXa55+AZI91o1uFYYER8SBf5UNOkc2i/uE8aLvwJjPAHuHYdOClQz1du3jfKoGqzOEc9qwfqHuE7ekYt0wUUcR91u//Ieakp7zt0TuA5wv/g8YumcKjj2/c/kfegAeMFg7xv3XFQaoMI09w+YITBNADyc/T0VRkG8ar5w3nf8IwhT/UB10nby/LXiI77n0Q9mm/et4wfaXhKA3JE4CuvM7UfyocOxp8W5Uow/s+/XMdgTCUY8QBIe9OHwhgiQ5s7O3TH9GDXZxWLgZo5sS4rDALEg2E55KFJ0oMllzRG3P/0ld+K4oKaCBmSVV1PabVsOOh0pZUNtmFgXUWnwDIWCo/hG3WwDbnWUwWQdQJGWHER/2tXzdDH8JGgNLslrHUTGAEUaJqUJ7joxIjrnYdfmPxh/FA7NYXB8BXyr999ZJKn+3ApD3bGl5Ov3ZRxYFishqNzDGORBoaa5EdgBIh0jfjarfekvKphUjjVvfbm+1LOCoyoOxre60ulMPxFfnBgqE9xbtt5WPqhXotLzRZ4PGMMrUlWdWsbO2U4N3OMTtuemo6b83U5xUbbRvuGJqyH18HYP/ATCcYfPvoJgzHVYCRo6ZreRwvfS9AFStsjHhg9QEAS90fqXhE7O04aw2vMH5IMXEoDGmhxoTMoIlyht9JoPN4oc3NkQKhvMs9zAj7oXLrFVc2bEzBSB0aHVcPiHPNiSOPSjbBmQGC0Wq6TU+CX8giDOUs9PlwDGo1tfXKulLRMLMuxkoVfLDCevXxHprmw/aBlHAQONQ0Co5XxpXtwSsYHaNrlCf7RwIjhNeoAsMKQWT+gOeM+6pLSwJpI+LldQUDlcwNGp22P8haPi5EQoIgDGqoeB4Hx2d2/FX/+OjS/iKH0wtzfMhhTDUYYRKDl4aAhc62vS0Lx4fwvIx4WHl5DaY94Y/ITA4SkKcLFUeZpNIUjMGJuUn/40a4xdEIDLfJVi/VRtD7SiOBSfMGWHtmJADXys3JjgRGaCTqjXTzQCHEfw0aKPxoYIfPwSWhOrbTCrAWPTG6RoEB8dBCUoSVR/LobC4wYciI+u/WEMPbgPmBEcUcDIxZsQx4aOclbudHAuHXnIaOMVFYrV51CoLrwljp/uSJf8YDRSdvbUFQmAvuOicDe47ZH5bZ9tnWUle8THn/AdpqIwPj//DFPaoqAIhZ0+wLrGYypBiMajm5kwfAZgBtr2BbxUIfqNst7uA+5jdVToqggZHzAMDkaGI/2Xo2Iz6pDufWDRkidBsNBGlqjo8G6Gy2+WGDEMBLxYB7MKp6GlwBWh6GxwEjzldAMKU58JYN0AE3Mt0FjxH3SMBMBI6z0iPvGbesF5zQHeebibSM/0cBIVl5o6pR/KzcaGOe37ZN5Qr1hLtHugFGK4qZnHG0EQLKqGw8Y1fB257m1raL3y19FPbqfxm9YJDDin4yF5Vnim/f/TgLy8c1/x2BcDjBWFDdLoAFsWTklUhP8duefBJbk6I0ChhrAr7Ui0tK4UmDEBDo6PjoqLKjQ3vA5mjrnqJeDrknbxJCY/HSXNLyqurYImYXt+2Xa56+F5x+jgbGucaOUV0GH+SXkHx1fnyd0AkYyctgtHyqvbpLxIw19bg5lpfAAKJU9GhhJ21PLTOFUNxoYCa52lnI1Hjqn4XWslx3Jk0vl1+d16X4ibpa3SkQ9EvhMUwUj4Pj3hTkSjP+NjS9GO3Xz7ByvY1QjfWfT5xJ4sDQDfAd7rL/zpWU6eYqlGvFMBJeMobXdUDpVGiN1GLeaBPJNAFDnCNV6wTnBEwYQdS4Ic44ETSyJoXAERgxx1eEywlJej5+9bsgTLHVIQB6aFICmgpTSIZfitLO8Q+7Cy69eUAbVGEXLnDAsVtcbUr3ACg04U1pqmWERJn8rNxoYkQf6nBHWYT08jC5q3eE+aZl4gWBdpRoGeYRF2+p7caSFOsSRzusW1fLgXAfjem8IjP/1F2yV1uvKyXVcYOwNbJJABBRx2C26vjv9TN5/uvU/icX2I2J/93nxaOFbU9jlBiMZFwCWIyeviJ37T8gDhgNoQdE6Az5Xo04DOB44cl7++EC1pGJBM8AEOQz9MFeHdGhoByut+mAIjJDHsPnMxTck4BAWfginduD1OV5TXDCSYGkNgQNhooER5aV4T5y7IWAtxhIi1dKJBe4EcQAbFnbIIBwOfV0igRH3AE3kB/FSmfUvZdTy03k0MEKGtEakgR97oBywPGN6A/UGP4qLXICd8gyNFd96nzx/y3g+WFZEsqpLy6FQFsigjlEedfpAlU+Hcx2M+FkE5hn/6fO/56H0cgyl0Qiw/IbWIt6Z/tSycUEOFmcYZQigcLHkB0t4YFzBtQ7G2aY90j9VGiMZQKjDWLnQNuwaO9YL6mE2L4YXtSMchqAApyqHzguNC2BT48ayG8gBoHoYWEathrz4TA+dVo0f8IFmhCmCaGDEomZaQkPhATCAR80XtD2y7JIchtFW3zITGDHFQFZ/CnP6whumhdRqGup5LDBCFnOIpPFS/HDvvftUfgWjxodz1DVeeARoCoP6wdpSdT2pGhZTFOrcM4WLNU+qxrHc5zoYO7tDnwT++Cl/+RLPs4hLY3SbkM/TIJrK+kV+fnidmds4kiEPbQ6aELQgTLKjowEmOMeyknOX70rY4H609DB0w3q+huZugU/o7GSxrATLgpCO3XIbPSw0NxhT9PWAuhyGspjHhEFHHbLrcnbX0IwBZZk3DdZqGAw7UVb86EH1j3aORe6w9KtflkSTxz2AHQDSAW0VDvFiSgEH6thKRvdDnhC31bypLkvXACReBKjjWM+DwqyUq4OxtTMERtYY4/tP47KAcaUai54ulnOg88EIot/DNUCD+6mYeLdKj/1CjRaaHQ3d3YCL6y/c6XUw0pcvGE5fOv5XoqfvJ6K+9WfSKANZrrtw3VnVxZoCI752APigEcI6TWvcoHXghxLwx/1oQ2mrSmS/6I1Mrx8MbzH8xg8d8BzweSHq3c2iaj3OtX6tgxGW6X1LfyP+r38MfRoIQOIItv2U/8foYM5xTYERc0qw8KITWh2Yi9qydIjfpg4aTiIg0udH8SxgbMKwPpF413JYKzDSPtP4OS20RUARfqwxxn6RrykwUsfB3BG+K4a1GJ/R4btgWFqdzldRPOzGbmBWdYShMyz5M5t3yeeAuU51WZBVGPaLXtfRwEiAJJfBGL0u0dbWJBi5k8VuGFxHmVVHDMbkPi8GY4qHjQyY5DZYrk/r+mQwWtdLvO3FERjLynIFH1wH3AbStw1cu3RA+Ko3ODogGy8w1ko4R2C8fuyvBR9cB9wG0rcN/ObTWuHmWCuAi7ecjsD49C2fKCqp5rcMD7u5DXAbWBNtgMHIDX1NNPR4NQcOl9y5u0ypTwYjg5HByG2A24DWBhiMWoVkyhuN87k2NRl+7svz3BmMDEbWFrgNcBvQ2gCDUasQfiPH/0Yuqa4Qr5wZFZXN5l35rr/YLc493W7qfB2TLWLp8qTwVK7sH5f4ecf/vFdz3TEYGYwmYCXS2KtaasStX+8TZz427/9z8/u94sovwvuB5xR5xY1v98gD54mkyWEZbKloAwxGl2DcFGgSP0wtiONN3au6Q1e11oqWkSZR1RraZW9ddpG8hp+nzP4flHten5ZwbBttNupHB+PixXEpM7Bo3kdbbeC5RSVGejme0Hah/vpK6dfQY94xUQ3H5wzKZLSBtARje2lAvNs3LgH04/Qr4kHvmFiqbxMbokCsozQgpqrNW7Emo4L0OH43vUX8r1t2ySM7J3IDMF0+U69PfrhVwuviFzsk4NbleOQ1NMLZo9ab1aOsBSWlUmNUoaeDcf7ksDjyIPoeMDUdtUZ6HROtMg8EVMSXqfXK+c4McKcdGPcGOwzwEIDI/e3UFlFVVGbZKT4bnpHhUt3wDjV1ib8s7JSwTnVaKxn/8fe3SDCd/yy8GyCgiGP60IDpGRx6Z7O49stdtgeFiyaz9+aMKU5oqhQOWirqYuu5MenHYMwMuKxk+0007bQCo6+g1IDivsZO4ckvkVsC1BdXio8GJ8Wf57eL0sJSUweiCvh2Yn5ZwEjprXb30NubJYTU+UIACbAa291regb7b88KAFQ/CGzk6vfVa2iDap2W1lYaYKSh8+yxIemH+UlVls8ZlMluA2kFxk3VTRJumMOzKmh+rnmiHteAKbTIf5zdJsPWFVcI9Qh4Iq2e8CtTNrDHEL3bXyuW6tpEf3mdacheUVRmio/iLimwBnQx9iMprhBZL/fZRh4nKoNirqZZ1FjkhcqJPWEwHbCtrlWMVjaIeq+5HAV55rJTuOrdR0XbvQ9FyfAmyzojObcuDVsP3Jk14oXGB8jR0NYuzuzCEoFwkIWVmoCK8BhGF1dYa/1qfBvyig0wel9arge2dkk/Gt6r8nzOcExmG0grMPaX1Um4QTMEYGIV9KvRWSlPQ20r90/z5mUiiBPx/3pyQazLKhJXOwfk0FgNCzhS2hi+q/fo/PnYnCFDsnBPtvVIeYD2ze7hiLBn283aFsLUeiqEOndJaaju9vrQPJualqdrSPR++St59HzxnVifHzJSqDLxnk/s6wuB7eyoUU4suQHs9OU4lAZgBnjBAg257ZcmZFiAEceua9MGJE893ip65toFwlB43SWgrs8OdfrG/qCMF8N8XZavGYzJbANxgRFbBPgq6oS/Kig8peY1a3aZgxzkfeV1tttW5uZ4xR9nFyVMAK89DR0iT9MS1fhhIT7atFEeBBG6JndXQ+Tv8hH3H2a2iXs9ozKtH2e2iiudAwLzm+/0jQvVqLJQ02ykgTivdw7KMLHAiDSQp8sd/WJ3Q7t4MRYa6sMPUwNUDmiryAv8kQdAEprzP2/eYfgh3aA3cpe+ktE5A4wAZJa3woiX4tddJ88BYbpm2iSERnf1GHEeemtO+uV6zC8tDHsBQQIZhroIT2nDn5brwDizcDqsRRIwsQaS5Mm9+NUOcf2b8LDZF6iQ6e+6MRUhS2HYZUAmow3EBUZsGQrI0RFra9B1OcWGLMKom7vrhcAQkkABWMDQAWD4laGvHgbXBBKre7ofQQvx73C5z0ijt8oxGIPeMACRh+8nNsuwADDlqaWkWvoBnOQHd7GuTfqfbovUMA25nGLRcvOB6H76jQjsO2EKb8golnw3zwFaIWAW7A8a8cLocvHLkJVajZ+ACchtOT0qsNRGvb94flwOqVW/rPxiMb63TxpsEK4kEAlGLP05cj9svYZ2eeXrnWJ4aXUvlVLric9XBvRxgTE7ryQMuupwx4n2EP3VYZDG2gcZWtSW2la5XAfwogMWYbs04gHja+19tvHZpeMUjIct8nqxo1+W5ZKyuf1YZVD6fTo8bcoLlh6h3O/0jpn87fLl1N/Nc3AaZ1GZX0CzBOz0MPDDsBpA0+/hGsNkrE+0usd+KwMFrneHe75Y/Y8xt6hcePwBkeVgLhAVDTnII5ybiu/21wh1LhFGDKvw8YAxJ451iE7BaAVxzBMCdpjXpDJ4833SD/5kccfcJ0AJv/3BTkOWwiTixvscoqUJ7RILwq2OgS0hg8nZJ4uW9ylMeSP/7zNaHfO95X1JxKUxrsRDutEVmtv7fMS83o3yEg8YN2R7XEMn2WBE/kmTBAg/Hpwy5lkxpRBtjpXKvtIuhsLQChM5YLFe6XJw+ssLn3Su77QCI+Yq7ZalYAkLwAErsVWFwvqM+/qSHitZmmNMBzCizN+MhwwzWKQOGOIaw3wnZcmrbRMVr+wRWRbGGauyp8IPc4UzhwcijgO3Q0t2CJgA6OyRwQg5hFW/lEk0j5jDHp1+RfjK6y3bSqLxc/jVD9C0AiMsvtD8sO5PbXwYWkJTBPju9oyY7pEcwWUmEPpKgvyt3HQCY5e/RpbrfhxzibmVQcMq3f3kuWW9WJV/OfwK/X5pWAEUsYQHRhScY0iNOclU5uGtD56Jx8++lQf2r05lWhz36oRkWoERhgbADwc0pw/6J+QXLzRMhoW60uaTQFiXEQ4yWCKDpT7Qur4emzMtv0FDTicwYqE55fv9/glxqq1HHGvqlgeW+egLztWOWDa33QCjXK7jD/3wQZVZifOhpW5j6Q4tEMdPKJYuTUo4YjkPfeaXivw9evrCAOPhE5cYjMrKhFTU92qMM63AiArGkNlqUTUMMPryF/WBwJJ9uWPAACsBFkNsfImiytKwe7mH0ltrW2T+AG41P/jckfJr5WKdZWGeeQkMwmP43Pv5dxKOHfc/McWpxr8c51iHOHVgQOCrFBo6Y73h+lzzPO7k/n7j/tXnu+WXMFZrGBPJ8+bFA+Lhk+cSjtduvbei9ZJIOTjsymmjaQdGagwAXYO3UjSVVLkyQGCROP7O0+6rFmU2n+1RGungYlkPYAgtsbyoTJYZ5UYZsLictOX5gLU1Hl+7FFgsDVqusuEXZFiITTCEi++r6ftmq3xgec6OK1OGVokw+KqGfi9mFcat3/DEggTj0dNXGYysMbpuA2kLRrcdIVPlMWUA+Nnl//FASJucqEr9L9Xs8hDLH2sUz326KP+6Y7VQ2y481jgOL26UWuapR1tt68AuvJ0/DFqv33kowdjVZ/45hV0Y9l857Swd657BuMJvU8yBQmPEfCi0Yxre48cYWO+Ie/hBBjThdGxAyBPmDxPNG/73mGgcCA9L9O13PpFQvH77/aTEmYx8cRyJt5HlrEMG4wqDEd9A05yn1fwiwJkJUwLL2WijpbXv0DkJxaU9x8X6OBbwR4ub72UW3BJ5XgzGFQYjHh6WI3WU1ohTrT3yJxXn2nvlt9K60SiRB71WwhZ6q0R5dewlW2ulPric8cGcwZgGYOTGG1/j5XrjektVG2AwMhh5Ho7bALcBrQ0wGLUKSdUbiONl7YbbQOa0AQYjg5G1BW4D3Aa0NsBg1CqE3+qZ81bnZ8XPKlVtgMHIYGRtgdsAtwGtDTAYtQpJ1RuI42XthttA5rQBBiODkbUFbgPcBrQ2wGDUKoTf6pnzVudnxc8qVW2AwbiGwFi3sV5svzhh2rQK+7Xgz9rbXjNvurXpyKCYPz6clO+gU9V4OV4GY6raAINxDYERWxDgF18AHjUobEYFv703w3vp1HSE/E48tN5GgsKyy2BarW2AwZiBYMS+zfgDNg76hyH+cYjraP9BxFal+EUYNERsPYBGbQXG858tSViW1tpva4pwSK+qNfTXcPxhh/KEfzSu1g7D5VobL4O0AiM2mX/QO2YcVzoH5M8U8DuuZDfIgKdc4OevTjacSnbaicZHGh00vY6JVlk3ixfHJcwAvWjxN/YHBf59WNtVJ+V0MAK6r96dM2mVVvGd/HCrTA9/7MZ9/DYM+cExezSskVqFZb+1AZdMfs5pBcZ7PaO2v/h/p2/c8vf+8VY+9n3Gb756y0OAiDeelQgHLY0gBC0Nedh6bkz66WDE1gJXfrFLbkyFLUr14/o3e4xw+j31Gj+UVct6/P0tMhy0S/KnPE0fCu+bTffYZRhmUhtISzDil/74C3O9t0JqjPR7/x+mFuQvupJRwRfa+zIWjBjiEoRo6Dx7bEj6YaMptX425BULwEs/Ln5p3o4AQNVl1OvezR2meA+9Hdr1D9sYUHqIA/ka291r+NE9dhmMmdQG0hKMm2vM+5t480uNn7liuG1VwfiZ61R1o1iqaxMD5XXCk2+xeVR2sSjJLxUVRWXig/5xCcal+ja5WRb+fUgHoKyngX8m1noqxFxNs5itbhQ1nvIIGT1MfrBTNN+8L+rPXBNZXvOGXLqsm2vAjsDorQzlA1uUwo+GttHiw/YDtGkV9nmmuADC4aVukVMU+2/hNHSnXQCRHjRMxEXD+2h54HsMynRuAxkBRlQgAIahL7RGtUJHKhrEtxOhDevVP2BjG1UdsMebumUcqpzVOcCppgHN9fuJzRFhsXOhv9De0NB+/xNje9PAgZOmONX44zkn7QwGFYTH3CGghCGuXXwFvlIxe2TY2ISqa6bNML5gzxYaHiNuAC/Y12Ab18S+kIX7lbPhfZuxoRXygCVAdnlgfwZiJrSBuMC4LtsjfBV1wl8VFJ5SZ50AcpD3ldcJhLeqHJpj1IEGWWwfCogBeBQWmh1tC/Bu37jY1dAuZgJNguKBvAo5/CX7aNNGeWBLUty/0z1i+NE91SBTXuiXaUIWhqGxyqDcs5pACRfaJOVJdbsef2mAEVqjes/qPCu/RJRWBYW/Oihyi6JrpNiZD/ODFI8vUCGhhC1LyY9cDLdp6AtwQTMkeOnGl7L6KrH/zU0yLshii1MM07FxFcUHF1DF/dFdPYb/obfmpF+ux2f4qWH43LqdcL2kX73EBcbcIr+EHECHw2roqT7sdTnFJvm8QrNGRrIENCswQgZQBKC8+eGOh21GsWk9xUHu/d4xKQvYkZ/qfjw4Je/HMr58Njwj5c62R86bYYc/5AewVOOmc9/IJtH95LnoeO+pyAu0WMqQLFxPabVRT6WV9toaZPe8Pi2O3N9sxInhNZbiYCisxglr8fUXuyWwYISBEUXdvApa5N5bmwSG4mo4LLnBcBna4+Wvdkqrs3ofYEV8wf5w2WF0wdylKsfn6dfp+ZnEfiZxgTE7r8TowNBunFQ05Aik0IyswsQCIxlhrECI+ADMnrJasbOhXTwZmpbQQpxWaTkBI4AP8OEoyPOK7Jxi03GqrUfeO9kW1pqs0nLqV+itNOrIm0RrOTTGjklrMDcPNUlo7ro+bVlPWCdZXGH9InNaLpaL3RG5jtKrjuICIx4ihnoef0BkKdpbtIcLOchHGyJGA2NOTrEBKXXoCnhhs3oaGhPISLvEENsqX07AiB38KL5oLobjVmm49cMUA+BY5KsW63NjG0CcxJ9V4JXziBgyWx07r05JMOJTQav75EdGHidpskx6dXJ+Hu6fR9xgTEVlRwNjf1mdhBSGr5Q2YPliLGR4gVFmX2OntBxjb+bxqgYpnwgYYXkGEAHZix39tsdojGEv5XclXHUxOOYE4z3235416n0lyjkqJMcAACAASURBVMFpuu/cXGfx11nGgJEAeLmj3+igsEgDXLAO6/OcscAIYCIslvjYNSBopqR5wvhjJ2fnvy63RPhntglPt/Vw3i5cMv3x6d/M4QHLg5bsECxhVbaTbRqyrye3+W1o7hYDo3O2Rji38bF8/ADgurOuu7QHIyzEjwYmJMQwx4i5PnqYBxpDX69c6xw0/HDPV1AqPh8JGU3sNMbXXi7wvtkV/fM1fHEDgH46PC2giVLacDdkFcm1j6qfet505Y5hlS6b3W4Kq8qtxHl9d73UHmFcCfYFpeEGgMTQGl/LpCpP/cObxONn38rj5r3HKUsnVfnneK1BstrqJS3BiCUwH/RPiN9ObZFQApj+PL9dLtxWH0C7r9q4f6NrUOwPdsqlOqTlIZwdGLFYG/dxYBnO3mCHnKt8OjQtsKyH0gGIaUnQH2cXBYAKWWiuuEZaRXlhKzmFgwuLdO+Xv5JH05XbRpyqzHKfZxeWiO2XJowh9dDLT/2wxObsk0Xpj+U8+ClFKvK2uPuIAUYAEiscUpEOx7k2AJaq55xWYLzTPWzACsCChvjN+LwA9Ky+ZEGl7GnoMIa7CANQ3e0ZEVh/iGs7MCIsPj1UIUrh4a9WOMAHAwvuqwfAiPR1TZLC1h4+Z4CxuG/CFCfJLJcbaK8VWIxN30ZDOyQoUh6w5OfQO6FP/XAfi75HdnYL/FiCZBJ1Pb6AeOOtjww41jaalwklGj+HZyAmow2kFRjjLVBujlfgDzz4pE+1WDuJD8PhoLdSdJQGBP64g2u7cJjHhEEGmqrTOcfcQJPISsHfgezyqPu3jTabYAjgwZCCzwJ1WbrGVzRHHoQBiTC7b1gv56Ewbt0HH34h4Wi3ptVtfCxv3265btzXzaoAIz94+wePNYiYR8TnfgOLXSLPaz3st6pDGG7wU1ssEMenhFYy8fg1tfdLKN598CRpccaTDw5j327Wet0wGKNoiKulcahfusRTJoRPNA5Kd27rXmMY3aIZzUiGXQbWSrcBBuMaAONKNzJKP6fALx49fSHuvftUVNe3s7bIbS9t2wCDkRvnsjZOrGG0+4kIAZRd1hhXug0wGBmMywrGlW7wnD5D10kbYDAyGBmM3Aa4DWhtgMGoVYiTtwnLsNbBbWB1twEGI4ORtQVuA9wGtDbAYNQqhDWB1a0J8PPl5+ukDTAYGYysLXAb4DagtQEGo1YhTt4mLMNaB7eB1d0GGIwMRtYWuA1wG9DaAINRqxDWBFa3JsDPl5+vkzbAYGQwsraQYBvA1rWltZWOD7vNxbDjYt98p3we+GP6jW/3CPwdCR15YHGj/KEwdWr82IO3m0gd5BmMCXYKaqjspq6RpnPdeirLjZ/+4vdsTg78CNiqTNgOF+ERZ/t4izzvW+gU5Y3V8vzAndC+O4Aw5PBrOKt42C/xtshgTDEYG71VcsMu/JFc35eGG3DiDTiZdYgdEVtGmkRVa+gP7vijEK5xYJ9tq7TwE9+tr43FPABDgqbdVrVlDSEA4n7HRKsBxjMfb5O/jsNv4JCHrpk2eQ/pWuVJ9YunTGr4tXq+ZsGIn9LOB5oF9pSxe/iHm7rktgfY+iDWYRfHGxvDfyUfrKi3Tcsu/Gr3xw+Co21ItpzlP/nhVgkcbBKGdNfleAyYzR6N73+UVS014sSHr8h4rv1yl2gfM/8dXi/f1nNjYnRnjwHGgS1dcisK+JHswulRGR/+s3nxyx2mA3v2kBzcVJRJjX+1nq9ZMB5qCm2k1RtlY/tvJ0Jbs6rbGdid2zUQxI/9an43vSUqhO3Cr3b/z4ZDm5alQznxM19odepQl7S86UMDJuBgj5xNRwYF5gWt8g4Nk4bGiAPbSmTlF0vZHE+JmNzfLxp6GoywTYNBA8KUppWLfcLp7+qYZ8QBQEIWLramUPPjpkxquLV+vmbBeOHlLoHRwIh9q6FR0rGjvt3YR4b8yF3rDSne8tPLJ97wyQx36O3QHB+GrhQvQWdsd6/hh3swuABGS5cmBYarx95bEGX1VYZMx1RoKIwtaWljsT2vT4tTj7aK2q46GXb7xfA+QJBZujwpDxhdCIo4hxZI9wBX7NsDf8ojDDSQ71uI3D/HTZkoPnaLRFqCEUDqLasVW2tbxGx1o8COfrHm57CbH8Is1rWJbn+NpXaWlV0sSvJLRUVRmfigP7Qt6lJ9m9wrBvvF0GGX1pbaVgnGez32+0R780uNeCg+uFVFZUZDpoaXnVMsZbF/DDb7wtC+wRvanQ95xd7Y2MuG5HXXSZnVMEhjoLxObKtrlTshop7V+zjHnjnIL+pIv4dr3MM0hHqvON8n/ZFn+ONlMVEZFHM1zXKPHFWW7mOLW9TJP85uk3Wq1pVVGmoc1buPirZ7H4qS4U2mfKgy8ZwvXhyXgCEjB+LA8BfQwZyfGqcKRgITYFXZHJByBMae+Q55PXd8SMYDDQ4QRJwqGCluWKVxjzQ9nF/5xS4j/ebBRnkf/qSBDi9ulH6qBkrxuSkThWE3DcE4G2iSuwPqQ1ZsYYod+fTNrrB51dGmjabd+xAWu/9trzc35uNN3RFyejq4toOCEzBe6RywTUNvcM2+KilL+2ZTXjbXNBvAgB/mKdWwbsqMcAD9ybaeiHxhiK/P7wFqSBP1raZJ57iH3RvpGi7F3e2vFW9qOz1C/my7Wdv6anQ2Ii+QUw+79D1dQ8bOiz1ffCfW5ydvB8OJfX0SMBj2Uvmg8QFCBDzyV8EIP2hrkAMcvZXlQgUjwQ7zgRgKk1VZBeP67CKxcGpExnH+2XbRMRmySsPAcvX5bukPrfHQW3PyHGnBKIS0sS8PrpEu5Y9cN2WiMOzGCUb8gdlXUSf8VUHhKQ29IWNVJuQg7yuvs/2Dc0lBqdE5sH8ztJvRygZxpq1XdsYXY/MRYLzWOWh05N0N7VLLwjastC3qiGLwwH7RgCiOH2e2ynDYFpX8yAUcrMrjBIyAA8VDLnV4PU4CI+5/PTYnt4klWeTvUnu/zCPKou5e6KbMSPNyRwjWiOdIU5fYVN0kbnQNGXWtGoUSASNAi/xjz208CzwvKk99cXif6k2BJqOO6D7VFbm7Gqy3PigZnTPAiD27s7z2ux1SfTtpe5Ala+/orrChg0CEOUWKD64ORvhh3hCAQvgDt2dD5zt7xJWvd8rhr6cipIVbgXHba2NSHiDGhmWqVRp7ge97Y5Ock8TQnob30AaRLu4hXcBVzSPO3ZRJD7uWr+MaSmOTdECODruhJ1XsupxiQxZh7LbMBMTQUbBfM4UlF1ukYuhI13DbSwNSHh0SQzP1HrQuxPXbqS0mf5L5eHBK3o82x0iy5DoBI8mqLkFa9cM5gRH5B5CgDZNs/csO//3EZplPbNmKMG7LDCARfLD1q5oHaNS4B+2MnmGiYMRWtGoalP+9wdCQUr2Hc2ifyIPub3udUyxabj4Q3U+/EYF9J2KGc9r2kB60QgxbVYMKjC7Q9PT8WIERMlhyg3lEgIqOqVf7JUgpDiswYni99+aMWJ/rkWlhV8bTH20VFY1hxYPmJicP9MuhNjRJxAkXRhiKX3XdlEkNt9bP4wJjdl5JGHTV1lY5vWL91WGQZtkMf/yFfqMTY90fNBkAUY+Lrk+39Up5aJeYr1MPQJQgQ52ewsFNJzBCW6S84aWAfNP1R4OTsoz9ZXXSz22ZASSA563e8PCQ4gaIkR7uYx4X/omAEcubKG5yL3aEtF5ov+Snuq7BGMe6UydtT82Tk3MrMJZUV4jLX+2UQARMCYxwoUHSnKAVGHEPcMRBc5YnHobmI8m/qMwvMDTGcLxrOrSWcWBraAif7H2/ndTBapaJC4yokNyicuHxB0RWvnmIYVdZkIM8wtnJwB9D5z/MhCbk0WFxwHJ5KNgl8rQhLsGN5OxcGFz0NClsOmiMbsBI+bYrK/lTmTFVAD87jY3iw/AWdZQIGLEESq9n0kqvdpqXu5DccoDRadujPDlxdTAOL3XLIS6Gud1z7cYcI9Yh7n8zNNS9+NUO47NBwFKdY6QhrwpT/fywshQHmiUNqSGnarlO8s8ykdMOap3EDUY1kmSfQ5OBtojO9MPUguzY6NwYcpYpQ2YyWmAtHDQTu2NDdmh4ouaTgJBpYHRbZlpgfqAxElqoj6dD07J+yQhDYERdq/VF53gOdsaXdAUj5T2ZLoHx4Fvz4tTj0NAZQ1p8vod0VOMLrskqDZiN7w0ZeVQw4vtpLAmiuUYsMsc1DnwJI0F6Kby8B3Huuhbyh8EnWft+J7OOMjmutASjXqGVRWXim/HQRP55ZUiGiXp0VDttRI9HvX63L7Rch4Cg3rM7T9UcoxuN0W2Zae0lgKqXCy8MABB1iDrGffjhGgeW96hhMK0B/2SCEfObiBNAVtOKdp5X2yYqXtkjsrz2S5mihU/GPQIjQRHLa7Bwm+KePTIoYdYzFzYiAXIAHOYSJeiUdYwUDgu0ca+mozb0PPKK5YJz+OEbapKDS/HBYKP6J+scW90OjM7ZGkuTlU46xpNWYMQ6xINNXXKuUK8ssqKqEMR6N+rEsAbrYdDZ9eE3yWBeEmFvdpmXwtB9KzcdwOi2zOVFZUYd9ZSZ6wjWftTBj9OvmOqOhrdYOkX1AEj+ejKkvScTjPTCm1HSojSt3NzKoGGV7n7y3MiflWwq/QiMWOBNaxWRHj7BU4e43oDZat7YH7RdxwhDCQCIA8NvfA1DhhwsyVHLg++m1XQGFq1HBGoYN+f9w5vE42ffyuPmvcemtN3Ek6myaQVG+goCWgzmxjCviGUfpN2hE+PbWrWyX20MGRdwD1oRwAqtiowWAKAqT+cwNiAMDnwHjTm4Y03dcmiJZT0kp7rpAEbkx22ZMYymssIIAyB+PhL6FA/+LSWh4R+VleYlcQ9y93vHpJaI54IjmWAkjRYGJyzzwVpVPDNo0TCmUZ7ILZvbboBRLtfxWz8rkk+Vq4JRTQNzipgLxBAbc43qPTq3Mr7gHobDMLyoi7sBSVjKyVot5XI8xjfQW06PyrWTgCTipTQSdRd3HzHACEBiJUqicWZS+LQCI76cAKBojSF1Zrjww9cUVpU7VhmMMNggzOOBSUHLXqzCLdQ0G5ZrSgsdFP5W8gRGrJO0um/nR9Zx/X7QG1rg/fVo6HdSuB/LKk1xuC0ztD8aNlNZoQFafVkDw426BhHyyCPmdwEsN2DE10sID+hR3lUX6zNpnSXlCy6G2NCOVVmcY/jc+/l3Eo4d9z+JuK/Lp+qawIh5RXy77OYgLVCdY0Q+sV4RX7FggTdpjqQVYjnO+J5eucaRwuMzRIQjKzbmGvF5YjLK7PEFxBtvfWTAsdZmjjoZaaVjHGkFRrWCMNeFNXFYv0cWVvW+1Tk+rYM8PlmzWqJjFQYdE+lAE0U4dSG1lXy6+bktM+CGtZAIF6ssWD4FWbvpiFjh3dzH/CXSwvNTDWxWceBrlwILC7iVbKr8CIwAGODl9kA4FYwYKhMEce/Vu3Mi0FYr8FszaIW4B/DRcqCzTxblPSof1ltSXtS1j3Q/XvfBh19IONqtPY433nQPl7ZgTPeK4/xFX+6w2usHaxYBIswxui1rycsfUKhgxBAc2ufM4QGRVxK5BA5+mIPEJ4Iw0GzIi5xmwF++8ZUNrZd0my9dvqm9X0Lx7oMnrsuox5Vp1wzGOBYMZ9pD5vymBuL4dA+LreOpXxhPcoriCxstPavPAqPJ292b27rXGEa3dA7GVUa7uDPBn8HIYFxzjT4TOuZK5jGnwC8ePX0h7r37VFTXWxuQVjJ/y5E2g5HByGDkNhDRBrCGET+LWQ4IpWMaDEbuFGu28adjh+Q8pWbaw229MhgZjAxGbgPcBrQ2wGDUKsTtm4Xl0+MNz8+Bn0My2wCDkcHI2gK3AW4DWhtgMGoVksy3DsfFWgy3gcxsAwxGBiNrC9wGuA1obYDBqFUIv+Ez8w3Pz42fWzLbAIORwcjaArcBbgNaG2AwahWSzLcOx8VaDLeBzGwDDEYGI2sL3Aa4DWhtgMGoVQi/4TPzDc/PjZ9bMtsAg5HByNoCtwFuA1obWFVgxIZKHw1Myb9M46ezyXyDWMWFv1o/V/aEtpJZC34Xrr0t7r771HQs7Tma1Pq/de+x/KN0quozE8owOrVNvP3BM7Fz38mk1m2q6jST411VYNxU3WTsbXLBZq+XZD4suy0LkplGJsT1xtsfifc++rk8Hj55Lv/jd+r8raR2Xuw7gl9hpao+4i1DeaBZHD5xSeBnru88/EKg3G0brbe+SLQMiJ82qMrOi/yZbarqxireippmMT6zKPJi7BNvFTYT/FYVGIvzfXJvGOwXom+alYqHwWCMnNcam9makWBU24fTMnT0jIoPP31hwIqgBXfL0qEIiCcKxu27j8iXw/mrdyPiVvO/HOfIC8rT2TO24nlJRXlXFRhTUUHR4mQwrl0wYg8UaLCAw8nzt0SRt0pAi5vfts8Apf7n60TBGK0tLve9A8cuMBifvuUTRdoWm8l8ENgmEzvClRfG3qIRc4cVLzeHxyZNCGd12G1qhW1TsckT5b/BWym21bWK/rI6gQ2ZyF93MX85WFEvsFNgfXFom8poYMRmXIgbOw5OVTeKMiVNxB1vmfV8Ve8+KtrufShKhjfZ5l0P4/QaZUDnnt68U/QNz4iahg75R2f81RlHfnHkPK5TbYvy4K8KisHxzWJi06KM324TMxUqGL71Ds3IMFV1bVHLvT7HK9q6hsX0/A459Ktr3BhVHvlyUoad+09IMGAnPSoLuXsPnpH3Xr/7yHTPbRlQN1TXquu12d6X0odbUlYn+kZmxeTckmho6REbcu3bNuTxU1rUJT0LpKf/qDYrv0QUlwYE8nXx+luyjLOv7InII+pczUsmnqeFxkibwv9hZptRoQDR1c4Boc4VAnbYWvMfZ0Ny2EJU3XJTPe+22W8YMl+Nzsod6bBVqRoG8VoZbbbVtkZss/rp8LQRVn/w2Bb1h6nQ5vRq/O/3TwhsXA/5eMuspuXpGjL2WO754juB3fPU+4mco5Ooc1ro1PqxaWF3RHpOoIJ8FZZUGZ1LjfetD56J2sbOiHghg2Hr0t7jEfm49ub7Qt/FDhrcoZNXDK1OTQMbyOO+Xf04KQPtnjcwOhcRD7YepfTUOTi3ZUBdUDyqezvKtrGF3irx2tUQtNQwmAPWNVgqP6YErJ41wuClQnIw+qhx2p0DnBQmU924wIg3ia+iTr45PKUBR5UAOVSYr7wu4k2EyqM9jwFEXI9U1BvgqXqpIWIPZIDm0cCElAFcjjZtNB20J3VPmfX+ughPmh72VcaG79c7B+VeyWrc9EBVg86b3cNiPtAsTrf1GnEgDMnC9RWUGvcAz801zWJnQ7uxV/a3E/Ni3culAfGUWU2rZHTOAKPcfN4buQ+zKo/zWM8BMutzisW7j38uOwHgAkgOTywY82nwA6Cs9hp2AhW0H+wngo4FwGDjJWiMN24/lH4YoupakdoJL924LzVAzHPRHN+Zi2+YngNt5vTg0Vdi/5HzMv8Y5r7/8dcyjdMXzPJqPTkpAw2jc7WRAMVDoMEWAeTntgyoE9QzHUdPX5V5twMjnhvBFPULKzYMJNduvWfUKzQ+yg/czt5xeQ95e/3OQzG7ZbcMd/K1m9IffiTf3D5g5AX1ijCoR8ofuerLgMJmmhsXGHOL/BJyAB0Ou+EPVca6nGKTvP52hxxpYP3ldfJBQFMEdHBg+AoZAAbXrzZ2GA+L0iD3yVBIk4sGRsRxo2vQlO/hlyBWN5NHuWDIgfyeBnOa2PsY/jgobbgf9E9Iv3f6xk3+GPZDI4b80svhX8JlzikWLTcfiO6n34jAvhOm9NQ80bmT5wDZYEuPbPS33zFvaD+zeZf0x1CR4tRdJ1BRoYWNl9Q4YFhAh8PyGdWfoILOrvpjaEz3oKnRPUAC2pw+HIQVGfLRLNyxygBtN1YcAApk8EKhPFE+nZaBwpFLZbUDI5ZIIQ1Y2PU+iRcH7uGlRvGh7mkVwY59xw1/uo/0UFa6Vl2CLRtflDnG7LySMOiqnanN/uoQRAFSzFWolYzzY03dEhpwcf3N+LyhZd3pHpF+93pGpUw0i7MTMEJj1NMHuAh0G15uAhT0Vko/DLn1hobwpHmqcQGsiEedx6T7GJLjHmm8ySozxe/EjfUcEEf/8CbZia7fft9UT5h/Quc6e/mOyV9NNxZUIHvl5n0ZD+a/1LA4L60MynvosOo9pGsHM9I+MSRUw9A5IIn5UUBqac9xY3jttRlVxCqDr7xe5hHaKqWhuwQOaH10L5EyII5YYAQwkUZX37g0BMEYRAeWEOGeOieKYTL8oP3pLxDKs51L5WMwKmBEZeUWlQuPPyCy8p2tp4Ic5BHOqrJ7y+skNLBAG2ACQO73jkmN7cfpV2SY301vkf5Z2ZGbjVOc8YIR4Uk7JCMMhs3Ix8eDU5Z51sFYkh/SIlWtk/IFF3OPiA/DfVwnq8xqGrHOYz0HhFfnyEpeavDoOAAlOtLWHQct6wNhY0EFMjRMB6ys8kvDY1VbQbp2YLx0422ZLxhY1Pig+V699a4BQooDLo7y6iaTPIWNVQbUBcVhZ2h4673Q/GBr15CRBqVP6aiuXRlUmVhgpOE95c3KRd1TnHiOkDlz8bbhR/diuQzGrCKRaqs0HgJpbNDOuv21EiAYvgKUgAlBB0aNaA8tFWD8fmKzZZo6GGFYQV6tNFLkudn3EowvQZ+sMkerj3jvHTx+0ej86AQ0N4eOZTevhrRiQQUyZLhAR7fKH3Vw1eodDSqw/uI+NF2Kj7Rb+GO+rLt/yhgW4usR+McLRqQBwwTigMWX0iQXFmAqg6qVQt4O7lZloPjIjQVGGhYfO31N4PlZHQvbwy+1he37ZRmijQAobd1lMC4TGFHx0AwBFppfhIa1P9gp/U629Uj3DZuvCujBJROM7b5qmSbyVJAXuQRBByPyQAYVLAuiPJEL0COud5X5x0TLnFfbJipe2SOyolhZKX2nLqYN8CUHOjLmygBDXMOIEWtiHfNnCAfLqF16tNRj87b9ETJYJoLwH3zsbCiNaRnSMFXQkcZm9RVKLDA6KcO5y6G50BPnbkSUgcIDnmod2IHRrgxqWJzHAiPBFct09LBW19BmkSe89GIt59HDn78WsnzjBaTfs7uGbWF0+hWBqQg7mXTxj8v4kqrM3+0ZkeDAkBbQgfWWLNG0tGZrbUvUSk0mGDGkpjlDGH7Uch8KdhnQVP0BbsDv85EZoQ75MedI0JwJhIdwiZQ5tzJoWKW7tTk5NU9uz7GsAx0Gnd9tWOps0F7s5q0IHIAfDdWRDgCBb6KR9vGz101pww+HOjRFmL2Hz0l/WIHV9Ehj00E+Mbvd0OZUkKrldFKGqtpWmS7ytLE/tEoCcWAOHeWCP4xVarxuy6CGxXksMGK9KdIA6HSrPsLry6Aw/0gjAdQ35mLVNPFSsZoHhsyBI+dlWvpzUsPr52QxRx7t5oP1MCt1nVZgXKxrM2DzxUhoWAQ4kmYG4FhpYmrlJROMiHdfY0hjJU0P2iwMQ7imQ00fy41orhLaIOSxHpMAq89XJlLmsrntBhjlch2btZtq/pyckwEEcIF1eM/BMwILmmG5hJaHJR56J6J4sWKBNDhYtfcdOieXi+g/lcDaQ3QQyB45eUUO+2iIDbDoKxcIKnAxjIP2ShoS/HTNkJb+AJjbdh6W+cCPLtR47MDotAzqdAPmX7GMSC27Pv+opu2kDFSn5MYCI+SoXvHsAK1XdhwMlf3lCADPjuKDSy8B5A31f+jEJYFVB1S3iMdq6gRLuKg8WEmATyDRPlDvWNajpkHn9LJCOHxfTv7p6KYVGPFFCcHmVFt47gbaF/zt5u7Uik0EjKSV4qsUNU7AUYUzNL8ttS0Cf9exyhPmQ2F5prJQ3rH+UbduJ1JmDJ97P/9OwrEjyqJftSxOz8lyTI1fd2HJLCiOnC5A/BjKESAoHACrpo2hG6CpdhbIwgihLruhMLiHzkoaIsULjcdK+8DcHsBMcnDR8bGEB0tWcG0HRqdlgBzm7GhuD3GiPPhE0GpoivtuykBlJ9cJGPHCWlTWdyJNyhdgZFW3MILBWk2y5AL20IApfd2FxV1/frhWLfFqmM2LB4y6wotBvZdu52kFxnSrHDU/AFq9t8LyyxhVTj0HYDEVgE8WdSCqcomc42uXgqaupDYyWg8HDQAdAx0HR1N7v2z0BD0sHrbLO4Zp6MjB1l7LzkjhUC+YV6xv2iiXlpB/NBeaGOSjdVoKD+0X+VYNOXQvluu0DIgHf5vBUNXpc3ZTBsonNDFAC3Alv2gu5vIQBp8HRpOje5jKwKJ9WQ6Hn/UBxJDH9AvqwG4kQWlgyRTKgMXq5JeOLoNR+0FlOj6k5c4TjC2An126l28+kI17cGzeVsYuLPtH/njDaZ1AOwVUon214zSulZDDS4MWvmOt5UrkwWmaDEYGY0QDxZcT6ICYx8MnbTQsxFcjmA/EPVhc9a9WnDY6losNRwx5Mf0AK27bxhE5ZKdhq9XUQbrXKbRXmtrQPxxIx7wzGBmMEWDEcAoGEADQ6gA4M2HJRTp2OKd5IguzXv+Yl3UaRzrJId8oC748ijXcTod8MxgZjJYdDUtfMD+159XTcj4I2iOWn2A+MB0a7lrIA+ZQRya3yH88wqBVWtGQsXWPv/5EM3al2/NkMDIYM7azpVtn4vzEniLIlDpiMDIYGYzcBrgNaG2AwahVSKa80Tifq0c74WeZfs+SwchgZG2B2wC3Aa0NMBi1CuG3d/q9vfmZ8DNZ7jbAYGQwsrbAbYDbgNYGGIxahSz3m4nTY22I20D6tQEGI4ORtQVuA9wGtDbAYNQqhN/e6ff25mfCz2S52wCDkcHI2gK3AW4DWhtgMGoVstxvJk6PtSFuA+nXBhiMDEZX2sLX58bELy8k/5dR+ydaxG+uTop/ur1J/MMbMwLpXNhq/5/J60vd4ldXJsRsT/p9o0dbCgAAIABJREFUP7w03Ci+vTQhdoyEt7Bg+KUf/KI9EwYjg9EVGAEtwCtao3J779R8h4wT8f7++pT4+NiQ+OHapPjyjPU+0V6Pz5AHgNyml2r505s7Zf7OLXSmXd5SXfbVEj+DkcHoqvOmAowU50K/+Tf6Wbke27w9OTEsNcvDM622MivVSRmMmaUdWrUTBiOD0RVYCGJWjSkevyq/X2pXiHd9duZ3KNQBgzHzn2NagbE43yf3R6FtR7Hj3kRlUMzVNIsaT3nUDlxWUCqmqhvFUl2bGCivE578kgh5yAQ85XJb1vbSgJitbhTYIhWNuaqoTKaTo22ERZ0duxVih0LkBeFi5Qfh8oOdovnmfVF/5prI8lpvHEXxO3XzC7wiGKgQJV5fRPny8kP3yn2lpnuAT31luP5wH/NgmJ8rtYiH8lJQ6BUTHXVyrqyxOpT/WGBE3DPd9WLHSLPoqK8SdlofhsMVpaVirqdeghFDYpSLjtrKMqMM67KLDH+6T25BQeR+38h/vGVGWKdloHpC3aC8qCvU2an5dh5KZ7jCkVZgPNnWI3fW6/bXije7Q/szqzvtnW3vNToLNcqRigbx7YR5O1PalW9zTbNJ/unQtIz//f7wDn6/ndoidje0Gzv6YZtTbHpF8cPF9fcTmw0ZytNXo7MC+0Wrsup5+/1PjO1NAwdO2sqpYWKdz/c2yE736OhQRHzDbTXy3rOTI6Z7MGRg/s5f4hMvzo/Lc1zjAOisDBi7x5rlPZKD+9npESOsns9iT4l4eGTQuE/hMGfY2xQw5WdDjidCjuTJ/fHGjBEmJ6/YVv7SNmsDTTxldlMGlL/MVyqNRJRnuKhPSpvnGDNXc4wLjPi7s6+iTu7S5ik1N3q9w9A15PBHYl95nWljdLoPl8BIG9Nf7uiX0HoxFgYfthulMNhch/ZwfrdvXOxqaBfYzP5ez6gBsYqisOZBYATYsJXpH2a2GXJvbBwWlM6xpm4jjfJCv7F16oPeMTFWGRR7GjoMUAKY0CYpT6rb9fhLA4zQGtV7VufYpa20Kij81UGRWxTW8FTZRMD4P92aEQDO6fkOcXahQ/zu+rQEDvwAK0oHc33U2d8+0C8Wh5oEAETaIu6RLFw8B1iI4f/dxQmxdaBRhgGgCRaqZooh85mFDnm8c6BfygCg5Af31ak2Iw3II8/qfYL05RhgdFpm92XwGFZ01CPmOvEy+ersqFF3DEbrfqG2nXQ9jwuM2JAckKMDjSpaAdflFBuyCKNvpk5hVTAGvWEA4j5pbHuDHaa0MCQus9Da7veOSegdbdpoyBMYD73cbhQABCQ/6A9ZNgcr6uX1Z8NhbQXnkLHSVgmsgCWVQXV9I5tE95PnouO9pyIv0GIpo8p7SquNeiqttF6GkggYv7kwLjxF4SmG/IKwJtYcCGnJACRACaDphg0MfeGPQ803oAW/X7w2FjFP+ODVEPhu7orU9hFHe32VDAstS40z1vmx2TYZLhYYnZQZabktw8GpUPo/3piWw2c1v2/v75N5YzCuMTBm55UYHRjajdoo7M4hRyCFZmQlR2A8bLFP8sWOfgmoS+39lmERnzffJ3rKasXOhnbx5OWwGdojpUVgxFAdfttqW2WcrzaGYIshMyD4zXhoW1AAH9c4CvK8AvtEq8epl0N/5JvSSMQt9FYadeQtt94LOBEwdjVUReQTGh6gNtEZSq+ltlJeo8NbGUNIa1TLiXWNiGO0vVbk5BabjoGW0PDeDnypBqOTMqMsbstA2vDuscgXHhtfMheI1K7j0hgRGEM9jz8gsvIjjQAUuepCDvJ2Q0TIEhhJo1PDb68PQexq54CpcwNe0Px+nNlqQAwg+8vCTnmNITbF4xaMQW+VKU6CpO7e6TbP6VF6bl1MUQCORb5qsT7X2qiQCBg76yPB+OjlvCAMJsgvhs2AnD5PSWWxAiP5IZzdgeEmxaG6qQajkzIjP27LQNMQeJGo5cE5g3ENg1FvDMm4dgtGWJBpXvCHqQWxr7FTWo43ZHvEeFVDwmCE5ZkgC43V7hi1GfYmo070OAiMWASt34tlfHECCQIjNEk9flwTQNR7mMcDEO/s6RM3dnZbHodnwnOGath0AaPbMhAYSdNWy0RgPLuFF3ir9ZJJ53FrjKkopFswwiINcME6rM9zJgOMMKqQ5lmYZz38j1YP63JLhH9mm/B0h4fz0eSd3MOSEEAIX4bo8jMbQ/d0bY+spE7AiKEnaX1FRZFaqxUYv3xpcCCtU89XtOt0AaPbMuCrHNTTm7sj504JjNHmGLEv9/jMosgpsF/VEK3e+F5qtdKMBuOBxi4JxmudgyZI+ApKxecjIaNJIkNpNL53+sZlGp8OTwtoomqD3JBVJNddqn7qedOVO4ZVumx2uymsKufmHOv3CFyqpRdrBglaiYARayEpngOT5vkzWp+H9NU8wxoLP8xLYkmQeg/nVsNNkkkXMLotA8EP1nSsLaXyVJX55UsL9WEHxuLSgHj09IXcgP7DT1/YGiMpTnZTC0Gr+s1oMLb7qiW0oDXe6BoU+4OdcqkOaXnwTxSMMLrQkqA/zi6K19r7BCzjWEqEa6RVlBcJA1Q2LNK9X/5KHk1Xbhudx+pBOPXDYmcaxgFgHx4ZFM9OhZbF0JKZRMCIfBzdFFqgjM6NOUj8sAHWXVzToeeX8oA83d3bJ+OAxZjCjbSFDF56uHQBI/LlpgxYW0nWezyPmzt7xLsHB4yXSjQwNjR3Syg+fvatdHuHwqsg9Prh6+WHIuo8Y8C4tbZFQhBAUhsL1hSqIMT53Z4RgfWHOhg/HpySfl3+GhnHlhhWaUoH4IOBBfGpB8CI9HVNksLVHj5ngLG4z3rOjmTduN2NAaNTogMCRlgWk5MXWjiN74jV+KINpT84NCBhN90VMr5QOMCRNEekgTm4pZEmuXgZ/iRHLqYyTs6bw1Debu3ssfxSB2HJCm73wwiKX3edLtexmj6wK7PbMlSX+eVfdFBOOrC+kuaBoVXq+abrMxdvG3DcuuOgrRzJs7u8gEwrMMb78PFZX1NJlRzW2i22jjduNRw6Dgwy0FSdzjnmBppEVkmkNViNN55zLKXBZ37tdZUR86vxxGcVBmlgfaP6OaGVnO6H9Y49jdXy0zr9XqZcuykDPm/sCgZMQ2on5Txx7oaE48DoHIPR5iMJJ/WYCplVAcZUVAzHubxv6LVW3wXFFeLhk+dyrrHQm/wX51qrz2SXl8GYZm+qZD9gji/9AN/WNSw++Pi51Ba37z7C2mIa9kEGYxo+FIZZ+sEsmc/k9v1PJBj7RmYZimna/xiMafpgktkROa70Am1lTSsv0UnzfsdgTPMHxFBLL6jx81gbz4PByGDk4Ry3AW4DWhtgMGoVwhrB2tAI+Dnzc47WBhiMDEbWFrgNcBvQ2oBjMHrLGkRWfjkfXAfcBrgNrPo2wGDkRr7qGzm/0FmhcdsGGIwMRgYjtwFuA1obYDBqFeL2zcLyrI1wG1h9bYDByGBkbYHbALcBrQ0wGLUK4bf/6nv78zPlZ+q2DTAYGYysLXAb4DagtQEGo1Yhbt8sa03+69fGxYsLE0nvSK9OdRgb2ONHuEjn0mKPbTo3dvaJX1+ZFJv7W2xlVurZ7BhrE99dmhC7x9rSLm8rVSeZli6D0SUYO8uDYqiqWWS7DJdpDcMuv/RXb7v78fif3tJt/AH799enxSfHR8QP16bEl2fHLMFSWhresAsAiifNVIY5+7I8r23tTru8pbLcqyluBqMDwE3Xtomb3aPiD5sWja0N8grW5rxNKsBIcW4bajWBJK/Ivo4/PTkqt144OtthCpMOnZPBaP/c0uH5OMkDg9EBGH8/vdUAIu35wmBMTuOvqQxIbRFwzC4oSzvIOelEugyDMTltQ6/X5bxOKzCWegIiWFonCDqeogoxVdMqFuo7RH1pbUSn8RdXS3nI6ZVGcZV4qox7ld6AqPfVymFwV0VQzNe2i8LC0P0aX41Mp8BCE8wtKJd5Qr7+PL8kIQk/PU39uqilX7TcelcEz90QOf76mPJ6eKtrT3GlaKmvFWX+cLlIrqi4Qt6rqqg2pQX4NNbUGH64j3kwzM+Vl5llKS64xSUVYqq7Sc6VtdSF6p+0O1VOPUfcc33NYtd4u9jYWC/stD4Mh6srq8XmgdDWqxgSo1x0BJX8Apjkr7seb+SzR37iLTPCOi0DlRt1g/KirlBnZxY2StjzUDp2H6E6TDc3rcB4un1AQqe3oknc6R2L0NJe6xgwOjcq8ubLnft2Nm40+eMeZKHdvdoUnsB/NrxJ+n3wcrdA3P9h6hWxt6nbSOufF3aIJn9dRHz04AiMBG/yt3LbHzwxdgmsPXjWNk6rsHZ+CwMtstM9PjYSEd9YZ1Dee3Zq1HQPhgzsYldRXiUNJ7SjHVyAzsqAsXcycse/z8+MyXgQTs+fr7RSfHh02LhPaWDOcKAtaJLPLSyPkCN5cn+8NWOEKfCE99Km++Re3t5ryKl5iqfMbsqAtKrKq6WRiPICF/VJaTMY1xgYswvKRVlNi6ioaxe+ikbLhqk2UpxDDvJlgRaB8Pp9XBMYCT5Xu4YltF6MLxjgaiwNQyteMAKIZzuGTHOGt3vGBKVzoq3fMn/II+XNCRg3Pv7KACO0Rqsyq355nipRUdsuKuvaRaEvUkOGbCJgxBaoAM6ZLRvFa690G/tTww+worxgro86+/1XB8X20TYBAJG2iHskCzenoFxaiOH/3aVJsTjcKsMA0AQLVTOFBnjulW553D84KGUAUPKDe2hTp5EG5JFn9T5B+sr28ItPzRPByWmZ3ZYB8r+5Oinzjn2lMde5b6Jd/Pxs+OXBYAy3KfXZZMJ5XBpjYUmNhBxAh8MOdFQB2YXlJnmEp3uqq4Kxucw89Px+MgTH/YoGGC8Yj7T1yfQBQEDy4eCUvB4JhPau/nxk1jJ/yKsbMPontojuJ89F53vPRGF9uKOrZVbPSypDLw/UaXlNu2UeEgHjNxcnhK8kPATHMJQA2FYfeuEAkAAl/HXDBoa+JK/mG9CC//Pz4xHzhO++BN8be6xfNl1N9TIsQKbGGev8xHyXDBcLjE7KjLTcluHwTKdM/8cb03L4rOb3nQOhvboZjGsMjFKzeQlFaDdqo7A7hxyBFOGt5AiMR1+CS5W53DUsIQaX/OMFI4bqiGN7Q5eM81BraDiGITRA+e3EZiMNSotcN2CkME7d4rJ6o4781WYLLcWRCBh7ms0vG8QJDQ9Qm+5ulmVuD9YZHd7KGEJaI+UHLtY1Io6JriaRX1RhOoY7QsN7O/ClGoxOyhxPGUgb3jMZaRVn40vmApHadVwaIwJjqOerbBR5xQFbiFAicCEHebshImQIjKTRqeF3NoYgdn3j6gUjNG/AsaQ8KHKKrF8eiYCxuykSjI9fzgvCYIL6xrAZkNPnKelZWIGR/BDO7sBwk+JQ3VSD0UmZkR+3ZUB5UFa8SNTy4JzBuIbBqDeGZFzHC8Y9TZELaaMZX9JVY3RShwTGj0+4N744gQSBEZqkVX4IIOo9zOMBEnf3DYibu/osj6NzXZbxpQsY3ZaBwEiatlofDEYGo2VjVxuJm3O3YKTh9a3uyC8krm0ckcNiK6v0coExu6hKlM/tECX9oTlMN3VhJ4slIYAQvgzRZWb7QktfdG2PDBFOwIihJ2l9Jb7KiDSswPjVuZDBgbROPV/RrtMFjG7LgK9yUE+395pXSqCsTsBYFmgTk3M7RYHX2YgrWh3yveSDOO6hdCoehlsw7nu5zOY/zyxKyyjlabGhU0IR84UrCcbmq/cMq3TF5l0RkKH8unGxjo/ApVp6sWaQoJUIGLEWkuI5OGOeP6P1eUhfzTOssfCDIQJLgtR7OLcabpJMuoDRbRkIfrCmY20plae2KiBfWqgPO+OLr7JJPHr6Qjx+9q348NMXws4YSXGym3zwxarTjAZjlTdgABBGEXXJDdYnJgOMgO97A1PGgThxPFT8xqqtf2TQ/eSXBhibr941Ok+shxLtPgwiNIwDwB4dHRafnQ5pL/ipAjpkImBE2sfnQhZfxIU5yNd39glYd3FNh55HygPydG//gIwDFmMKN95lvawrXcCI8rgpA9ZWkvUez+PW7n7x3qEh46WCerIDY1P7oIQiwIijf8ze2KfXM18vDyQzBoykBWJto9o4dgRDRhkC1n+ZXxIHmnoEhsvwU5f3fDI0I/16KkOddJsDq7S6GJzS0F1VK1XzVnf0ggFG35BZy1Ll3J73tdQbnRIdEDDCspiCotDCaXxHrMYZbSj98PCQhN2m3pDxhcIBjqQ5Ig3Mwe0aa5eLl+FPcuRiXd/phY2mMJS3N3b3WX6pg7BkBbf7YQTFr7tOl+tYTR/YldltGWqrA/IvOignHVhfSfPA0Cr1fNP12Ut3DDgu7jpiK0fy7C4PEKme0wqMlCm3bn5huWjx14s6m0XRbuNLpnxBfafIK0/+DovQHPGZX1djnWkaIZl5RxpY36h+Tugkfqx37G9tkJ/WOZFPRxk3ZcDnjT0tDaYhtZMynTx/S8JxaHILg9HBPwuc1GmyZFYFGJNVGRzP8r6V13J9F5fWi4dPnsu5xmLemjjtXgwMxjR7U61lWKyVsnf0TogPPnkutcUde0+mHRTWynOIVk4GI4ORO+Yyt4E7959IMA6OL3DdL3PdR4Oheo/BmKYPRn1IfL66hviBhi5eopPm/Y7BmOYPiKG4uqDIzzMznieDkcHIwzluA9wGtDbAYNQqhN/omfFG5+fEzymVbYDByGBkbYHbALcBrQ04BmNRSbX4WVYRH1wH3Aa4Daz6NsBg5Ea+6hs5v9BZoXHbBhiMDEYGI7cBbgNaG2AwahXi9s3C8qyNcBtYfW2AwchgZG2B2wC3Aa0NMBi1CuG3/+p7+/Mz5Wfqtg0wGBmMrC1wG+A2oLUBBqNWIW7fLGtN/utzY+KXF8aT3pH2T7QYG9jjR7hI58LWLtt0ri91i19dmRCzPQ22Miv1bJaGG8W3lybEjpGmtMvbStVJpqXLYHQIxhpPuVisaxPHmrrFTKBJFOaVrMlGT3/1TmZDPzXfYfwB+/fXp8THx4bED9cmxZdnRi3r2OvxGfIAUDLzkoy4Tm/ulPk7t9CZdnlLRvnWQhwMxhhgrCoqEz9MLcgtEdQtDf558w4xVd245hp+KsBIcS70B031mZXrMV2rHfLJiWG5jcLhmVZbGVV+Oc8ZjJk/p8lgjALGkoJS8ZeFnRKKd7qHxUhFvZitbhSPByalH+6VFfrTrmOmEgIEsWSlUeX3S+0K8a7PzvwOhXphMGb+c0wrMBbn+0RdcYXIyi6WsMnP9YqJyqCYq2kWGMrqnbEkv1TKQ06/R3EV5fmMe2UFpSLgKRfrsopEe2lAQi43JxQWmiHSyckJpU3x7WnoEGOVZk0G956PzUk47m5oN+KnMOTmBztF8837ov7MNZHlrbCVI3knbn6BVwQDFaLEGy4XhcvLD90r95Wa0gJ86ivD9Yf7mAfD/FypRTwUX0GhV0x01Mm5ssbqUP5jgRFxz3TXix0jzaKjvkrYaX0YDleUloq5ntA+1hgSo1x01FaWGWVYl11k+NN9cgsKIp898h9vmRHWaRmonlA3KC/qCnV2aj60nSwPpTMXkGkFxpNtPRI23f5a8Wb3sDxXh69n23uNzoJGeaNrUMos1beZ/HEPsgi7Pxie53k6NC393u+fMOL+7dQWAbhROhgi1zuA2IHG0O6ElzsGItKmDtN+/xNjl8DAgZO2ciTvxJ3vbZAa1qOjQxHxDbfVyHvPTo6Y7sGQgV3s/CU+8eL8uDynXe0AOisDxu6x5ogd/z47PWKE1fNa7CkRD48MGvcpfswZ9jYFTPnZkOOJkCN5cn+8MWOEyckrtpW/tM3aQBNPmd2UAeUv85VKIxHlGS7qk9JmMK4xMK7L9ghfRZ3wVwWFp9Tc6PUOQ9eQg7yvvE4gPPmrLoHxz/PbJagud/RLaL0YmzfAVV9caYSNF4yA4Om2XvGHmW1GvG9sHBaUDgwsar6szu90j8iw84FmW9mux18aYITWaBWP6peVXyJKq4LCXx0UuUVhDU+VSQSM2AIVwDk93yHOLnQY+1PDD7CidDDXR5397QP9YnGoSQBApC3iHsnCXZ/tkRZi+H93cUJsHWiUYQBogoWqmWLIfGahQx7vHOiXMgAo+cF9dSr8soM88qzeJ0hfjgFGp2V2XwaPYUXHvtKY68TL5Kuzo0bdMRjXGBhzi/wScgAdDjQqtaPo5+tyik3yeYXhYZIqq4Ix6A0DEDLfT2yWINob7DDSiheMh5pCWgYACEh+0B+ybA5W1Mvrz4bD2oqaPzovL/TLuUfMMXrzzcNWkoHrG9kkup88Fx3vPRV5gRYj36qMeu4prTbqqbTSehlKImD85sK48BSFren5BWFNrDkQGioDkAAlgKYbNjD0hT8ONd+AFvx+8dpYxDzhg1dD4Lu5y6ztU/j2+ioZFloW+Tlxj822yXCxwOikzEjPbRkOToXS//HGtBw+q3l+e3+fzBuDcY2BMTuvxOjA0G7URmF3DjkCKTQjKzkC4+GX4FJlLnb0S2hdau83wsYLRgzVEfe22lYZ56uNIdhiCA1QfjM+b6Sh5gHneAmQZqkO03W5eK4LvZVGHXnL6yzzkAgYuxqqIuKEhgeoTXSG0muprZTX6PBWxhDSGtXyYV0j4hhtrxU5ucWmY6AlNLy3A1+qweikzCiL2zKQNrx7LPKFx8aXzAUiteu45xgx1PP4AyIrP9IIQJGrLuQgbzdEhCyBkTQ6Nfz2+hDErnaG5/SWG4ww2tzvHZPw/Gp0Vhpx1Dwmeo4pBsCxyFct1lsYlBB/ImDsrI8E46OX84IwmCB+DJsBOX2ekspmBUbyQzi7A8NNikN1Uw1GJ2VGftyWAeVBWfEiUcuDcwbjGgaj3hiScR0vGHdaWIajGV/i0RgBxXs9oxKKv55cEHk24EpGPUSLg8CIRdC6XCzjixNIEBihSerx45oAot7DPB4gcWdPn7ixs9vyODwTnjNUw6YLGN2WgcBImrZaJgLj2S1hw596n8/TH5xxa4ypeLhuwUjD65tdwxGd+ErngISYOtwlq7RbMG7IKhLv9I3L+H43vUV4bKYC9DpZl1si/DPbhKfb+gsOXd7JNZaEAEL4MkSXn9kYuqdre2QldQJGDD1J6ysqilwKYwXGL18aHEjr1PMV7TpdwOi2DPgqB/X05u7IuVMCY7Q5Rl95vRifWRQ5BWtrHWy0tpBO9zIajFhjiDnBH2e2mgxAW2tbpD/uJQpGrHP8fGRGxoe5x4K8SFjYPdCmK3cMq3TZ7PYIkNmFi+aP9XsELtXSizWDBK1EwIi1kBTPgUnz/Bmtz0P6ah5hjYUf5iWxJEi9h3Or4SbJpAsY3ZaB4AdrOtaWUnmqyvzypYX6sANjcWlAPHr6Qjx+9q348NMXws4YSXGyu/waZkaDEV+dAH44sMRHXXKD9YmJghFQJGs44noyNC0PaJ7q0VQSOXeHxgyLdO+Xv5JH05XbRudJpKFjsTMN4wCwD48MimenQsti8FMFdMhEwIi8Hd0UWqCMuDAHiR82wLqLazr0MlAekKe7e/tkHLAYU7iRtpDBSw+XLmBEvtyUAWsryXqP53FzZ4949+CA8VJBPdmBsaG5W0IRYMTROxR9FYReZ3ydelBmDBhJC8TaRrVh4McOBEe4f5rfLrCkB8NlXKvLez4enJJ+Xf4aGceWGFbp8qIyU9xqOup5f5m1Bbn28DkDjMV91nN2almcnnc3BoxOiQ4IGGFZTE5eaOE0viNW44o2lP7g0ICE3XRXyPhC4QBH0hyRBubglkaa5OJl+JMcubDWn5w3h6G83drZY/mlDsKSFdzuhxEUv+46Xa5jNX1gV2a3Zagu88u/6KCcdGB9Jc0DQ6vU803XZy7eNuC4dcdBWzmSZzf1MFTrOK3AqGbMzXl2TrFo9FbJz/3chFsO2dxAk8iy0SgTSR9LafCZX3tdpWkaIZE49bBIA+sb1c8JdRmra6x37Gmslp/WWd3PBD83ZcDnjV3BgGlI7aSMJ87dkHAcGJ1jMEb5Z4GTuky2zKoAY7IrheNb3rfzWqzvguIK8fDJcznXWOi1nopZi/WSLmVmMKbZmypdGgbnI3Uvh7auYfHBx8+ltrh99xHWFtOwDzIY0/ChMJRSB6V0qNvb9z+RYOwbmWUopmn/YzCm6YNJhw7MeUgNoCtrWnmJTpr3OwZjmj8ghlNq4MT1yvUarQ0wGBmMPJzjNsBtQGsDDEatQqK9RfgeaxncBtZGG2AwMhhZW+A2wG1AawMMRq1CWCNYGxoBP2d+ztHaAIORwcjaArcBbgNaG2AwahUS7S3C91jL4DawNtoAg5HByNoCtwFuA1obYDBqFcIawdrQCPg583OO1gYYjAxG1ha4DXAb0NoAg1GrkGhvEb7HWga3gbXRBhiMSQbj+/0T4tuJedNhtR0sdzDrDrY03Ch//rpjpCmpWkyV3y/wA1/66/Z/ujYl/35u9SNbPJvW2krx4vy4wKZj2Gs73Z4Xfj6MLV/TLV+rJT8MxiSD8euxOfGPs9vkge0W8KfvO93mP2rbNZ6JqkZBfxe3k1nt/rSXit22APGUH3uy0C6A+NM2Nr7CH8PxJ3L8YNYqzrf29Rl/5cYGZFYyK+lHf1dfyTys5rQZjEkGo9pY5mqaXYHxLws7xYux+bTrhGqZUn2eCjAenw3tYfPtpQnhKSox6jcr114TxB41gOlvrk6KgsLwZlepLr/T+BmM1iMOp/UXS47BmCZgxBat0C4ZjJ1SU0umxkh7vGAfm1gdIlPuMxjXGBgL80pEXXGFwA591Eh9BaVioaZZbK5pFmUFpYY/3YeLbU17y2oFNsfq9teI/NxweFWOzgOecoGh6/b6VilflBe57ee6rCKZl4qiMss0kU/EQ3HqrhONEen6C/2ivTQgwfjj9Ct/AT23AAAMeklEQVQyTcRNR2mhdZmRXvXuo6Lt3oeiZNi8pameFzfX2OQJ27Rizxc9XOXLe9h4i+55i0ukPPkVFHjFXE+9WBxqFA1V9vWD8I3VFWLHSLPAcBWaGW3RagdGpIG9r7HdKTbwKvNZ101ObrHcyrWmvEz84rUxCdvFoSaZT5QNh7pvdonXZ7pHMrUV1s8euwRChjRQzEMOtNTIfGGzMqobK9dpGSgs6gX1g3lX1Bf8GYyRbZPqKxlu2mmMOxvaJSBGKuoFtiUFKNQd+bC3s1pwaFpHmzaaZCCPYSmgp8riHMD8bDi0T7QaL84fD0yKWk+o4ZEs/LHzoB4PrnHvnzfvsLyH+07AqOfB6vpB75hlGp6uIWMXwp4vvhPr88PDRKv8OvXD8BFzcbWVkVCAQQL31L2iL2ztkn4DzQHx9oF+eU675sG9vLgxIv8AGu1eSLLo7ORnBcbZngbDeEJh4GLTe4BQLd/rO7oj8qGGwfnusfC+2Td39drKq/HSeX9zQMqf3dIp9k20GKCiNFAOq6G6mzIgLbwACIIUN3YipHPKD7vJBWVcYFyX7RG+ijrhrwoKT2n0tyM9MMhB3ldeJxCe/HWXwHixo19CB4D7dHha7A92inPtvWJbrRl21zoHJaAAr90N7WK8qkEaOxAOkAFg1TRudg1Lf+w7va2uVRo7sDXr5yMhWA6UhyfaAVHEkUowHgp2SbBff1mOP84uymvAno7RygZTGag8JaNzBhixf3WWNwx1ktFdJ88hXjCSgQPbpR6capNWXerApOkgP9imlNLAnsyHZ1olAL46O2p0eB2M0EARFyBxdftGMdlVJ7Bv9Y83pqU/QKiWFdrbmYUOeZAMDCrkB1eFuypPMpR3NV46JzBSmWG9BmjhUjjUAcnDdVuGhf6gERdeONB4L23rMoFSjZ/PkwfHuMCYW+SXkAPocKChR3so63KKTfJ5hZGaCIUnMAJIP0wtiJJ866ES5Gn4CesvhtsUB1wMuxEHAKj6/3pyQfoDhqo/zvU4lgOMlIegt1Lmy9UcY06xaLn5QHQ//UYE9p2IKA/FTa7T50DQcqsxAhIqbJDudxcnZOc+PBOGBIABeABYumHj7f0ha7AKxvyCYgMGo+21pnKW+0oNeKhDYyozXNKwsKWr6h/rnDQ1KzkCI8oBYKkypK2q+3u7LQOG5rS0CC8ONX5s7UrwVf35fIXBmJ1XEgZdddD00Owejr86BFGANCvKkI/AiCFqiQY7Pe7Tbb0SJq+19wnsLa0emHMkrVEF9xsbQxojYLqvsTPqHGHagzEOw5GT5xAvGE/Pd0S0hRs7Q0NaVaN7djI0FFSHsvRsrazS0OYAAgzjMWTWDxp+A1YUj+qmEoxY9qOmhXPMByK/eCnQPbdlwAsGceDlYTXXGw3alCa78YMyLo0RFZ5bVC48/oDIyo80Wlg9EMhBHuGs7pMfgfFK50BUOch/PDglwQjNMNqhap0w6rzTO2aSx1D5Xs+o6CitMaW5GsHo5DnEC8ZTFmDcO94sO/gbu3qMusXwGZ1e1y7xTK3AeGw2pGEiTLRD19yoTS03GGHwQT5/fWXSKLPbMqAsiAMvESqH6jIY44eeWo9253GD0S7CRP0JjJc7YoPx0cCEBByMKZiTtDs2WAz1MWzeG+wQHw1MyblMAuvZ9l6jIRIYoV1alQthEjW+ULxxDaXj0BgpvWgugbG+MvIlFs344haME53h+VzKD4ERRg3ye/Xl0PuHa5MCGqjdASsxhVHddACj2zIQGFWtUy0Tg5HBaNnY0UjIGn3VgXapNir9HJZtWLAJjlnZIQsngEp+Hm34D80zFhg3BZqkzDt9sT/dqiwqk7K/mzbPiep51a/zattExSt7RJa3yrae9DCxrmlecHN/pNHnV1dCc4aqtkdWaadgxPAT2hCsyXpeCIzqHCOWv+gamB4u2nU6gNFtGbAkCWXGYTV3ymBkMEZ0HuoEWOdH4Or2myflIQPY5CnrGbEu8UJ7n1wGRHGQi/lMiguaIvlDI4T/bCA8wQ5IkhEnmsaIz/sQFhon0qY4rVwVwtHWLaphcyuDhlW6+8nzqPGr4WKdf3JiWHZIWEJJFvNc7yhLcRIBI8Hv99enBD7XozSqyvwCWiFgoIIRy14gC39YjEmeXIAD30LTte6mAxjdliEv32sYnA5Mmg2FtNYT9aGXla+j9zOn9ZPRQ2kU8tXGDgNoGFofbAotf/locFL6wzBDlTFYUW/IfjGySUISmiJkaL0khuUkD/dO94gRBkt67veOyeEzYIcjGhgBWAIrrM1n2nrlvKjdTyU+6B+XaWHJzonWbjnUv9E1KOc/1TzRedncdgOMcrmO3zxHSnJuXRrGoeNhngyWYvx0AdcErkTAiMXRZHHFfOPNnT3i3YMDBgiQjgpG5J80Ltz75sK4wFAbn/oB1tCe4GdXznQAYzxlwJc6KC+OR0cGxfWlbllO8oNrV2b2TwyQaQfGpbo2CQcnc4z08Mcqg+IPM9sMgJHmhwXb9draPszlAZoELJKFC6OMqi0ifhhuADVV7uvRWfkFDn4YEQ2MCI91lXpa+AMP5V11vfmllovPf6stOaIwGD73fv6dhGPH/U8s4yRZNy60Q1o2Q50QQBxqrRE0bG5W5vPIz2oovWu0UXZsrG1U84Cva/DtMsUPFwCb722QftAqVXmcYy0kWaDVcBj64ysYXZ6uyQqO4Sn5OXGjDVex9IfyrMcF7RX3vr8U+ZzdlgFwpHwgTiyJWhppkvUAfz1tvk4MiFR/aQdGylg8Lj4nbPdVyyU46hIdu7gAPVii8bULlvrYycGfPttTh+bR5NV7iLvRWyXzBvip96zOvfk+ufC82Vcl9LlNXR5fuxQ0dcWMUw/n5BqfuwEmpV5nKw+cxKnLeD0++YcbdUity+jX0DjxWzAc+hcvumy6XrspA15UeBFZGcPStXyZnq9VBcZMfxic/+S87bkeuR4TbQMMxhhGkUQrmMNzJ+U2kHltgMHIYEzJMJxhkHkw4GcWfmYMRgYjg5HbALcBrQ0wGLUK4bdm+K3JdcF1sVbbAIORwcjaArcBbgNaG2AwahWyVt+QXG7WDrkNhNsAg5HByNoCtwFuA1obYDBqFcJvzfBbk+uC62KttgFHYPzNp7XCzbFWK5PLzSDhNrA62oAjMF67dED4qjc4OiDLjWN1NA5+jvwc12obcATGM2fOiJ8U5Do6ILtWK5PLzSDhNrA62gCDkecY+UXGbYDbgNYGGIxahfAbf3W88fk58nNMpA0wGBmMrC1wG+A2oLUBBqNWIYm8ZTgsayncBlZHG3AFxn/6/O/Fv/x6g/hfvlkvvnz734v61p9FGGTY+LI6GgZ3cH6Oa7kNuALj0zt/K37/yX8U//37DeJ//Dlf/H9/yhNldetNcGQwcodayx2Ky7462r8rMKpLdgBJwPHMwb9mMPJwnOeouA2sqjYQNxiP7//XEoxvX/o3DEbuFKuqU7DWtzq0vkSeY9xgfO3wX0kwXj35VwxGBiODkdvAqmoDcYPx+qkQGE/s56F0Im8mDsvaCbeB9GsDcYPx3sV/IzXG3dv+hjVG1hZWlbbAoEo/UC33M4kbjEf2hOYY719hMC73Q+P0uONyG0htG4gbjIXlWeL//qdcqTVi+c73D/9OVNStE7xcJ7UPjDsE1y+3gdS3gbjBiKU7zx/8BwlGLNvB0dP3EwYjD6t5WM1tIOPbQNxgHBn5OwnDf/nVBtMXMKwxpv5txhoD1zG3gdS2gbjBeOd8aI5x59Z/y8YX1hAyXkNg0KQWNJlWv3GD8Y1zITAe2MELvDPtoXN+GQLcBqK3gbjBePF4aB0jXPVTQR5KR69wbpBcP9wG0r8NxA3Gkwf+Ws4x3r3wrxmMPJTmoTS3gVXVBuIGI2mMGFKzxpj+b0DWUvgZcRtw3gZcgRHrFDs2/lTsW/ob8X/+Q2gN4/jYf2AwsrawqrQFBohzgKzWunIFxv/3j3n/f7t2jAIhDARQ9CjWCxb2W9l5RQ+xx9njLCsKCs7iEiFNkleIYCEm8+fPOOQ4t/h5D9/X3J2kuHaOZoygqjVZrKsdtm+JcZwe25nF4dn/CHH/nSbGduAhCrGulYFbYtzl9+9OjJKl1mSxrnbYJkbzQfNBDGAgMECMYUN0Be10BWIt1lcMECMx6hYwgIHAQLIY19lh6nVlYc9VaAxgoAQGksRYwkJ8o4TDAAZyMUCMoYXOtbHeI0kxUC4DxEiM5ksYwEBggBjDhqjy5VZ5sRO7XAwsaxwBuOj0UBUAAAAASUVORK5CYII=;" parent="1" vertex="1">
                    <mxGeometry x="720" y="120" width="225.53" height="220" as="geometry"/>
                </mxCell>
                <mxCell id="8" value="VO(variable Object): GO" style="rounded=0;whiteSpace=wrap;html=1;" parent="1" vertex="1">
                    <mxGeometry x="320" y="440" width="170" height="60" as="geometry"/>
                </mxCell>
                <mxCell id="9" value="开始执行代码&lt;br&gt;var name = &quot;why&quot;&lt;br&gt;console.log(num1)" style="rounded=0;whiteSpace=wrap;html=1;" parent="1" vertex="1">
                    <mxGeometry x="320" y="500" width="170" height="60" as="geometry"/>
                </mxCell>
            </root>
        </mxGraphModel>
    </diagram>
</mxfile>